<svg xmlns:dc="http://purl.org/dc/elements/1.1/" xmlns:rdf="http://www.w3.org/1999/02/22-rdf-syntax-ns#" xmlns:svg="http://www.w3.org/2000/svg" xmlns="http://www.w3.org/2000/svg" xmlns:sodipodi="http://sodipodi.sourceforge.net/DTD/sodipodi-0.dtd" xmlns:inkscape="http://www.inkscape.org/namespaces/inkscape" version="1.1" x="0px" y="0px" viewBox="0 0 742.35199 927.96745" enable-background="new 0 0 2000 2000" xml:space="preserve"><path style="" d="m 343.585,0.00194226 c -13.929,-0.156 -26.714,9.09800004 -30.485,23.18199974 l -53,197.793998 -228.843,0 c -17.285,0 -31.257,13.972 -31.257,31.257 0,17.286 13.972,31.257 31.257,31.257 l 212.092,0 -47.004,175.415 -165.088,0 c -17.285,0 -31.257,13.972 -31.257,31.257 0,17.285 13.972,31.256 31.257,31.256 l 148.339,0 -48.661,181.602 c -4.47,16.691 5.439,33.822 22.1,38.291 2.688,0.718 5.438,1.061 8.126,1.061 13.785,0 26.445,-9.19 30.163,-23.162 l 52.999,-197.792 173.169,0 -48.661,181.602 c -4.47,16.691 5.44,33.822 22.1,38.291 2.688,0.718 5.438,1.061 8.126,1.061 13.816,0 26.445,-9.19 30.165,-23.162 l 52.999,-197.792 228.874,0 c 17.254,0 31.257,-13.971 31.257,-31.256 0,-17.285 -13.972,-31.257 -31.257,-31.257 l -212.124,0 47.003,-175.415 165.121,0 c 17.254,0 31.257,-13.971 31.257,-31.257 0,-17.285 -13.972,-31.257 -31.257,-31.257 l -148.372,0 48.661,-181.602998 c 4.47,-16.691 -5.438,-33.8189997 -22.098,-38.2879997 -16.691,-4.501 -33.818,5.406 -38.288,22.0969997 l -53,197.793998 -173.17,0 48.661,-181.602998 c 4.47,-16.691 -5.438,-33.8189997 -22.098,-38.2879997 -2.608,-0.70400004 -5.227,-1.05600004 -7.806,-1.08500004 z M 308.076,283.49194 l 173.171,0 -47.004,175.415 -173.17,0 47.003,-175.415 z"/></svg>
